<?xml version="1.0" encoding="UTF-8" standalone="no"?>
<!DOCTYPE svg PUBLIC "-//W3C//DTD SVG 1.1//EN" "http://www.w3.org/Graphics/SVG/1.1/DTD/svg11.dtd">
<svg width="100%" height="100%" viewBox="0 0 64 64" version="1.1" xmlns="http://www.w3.org/2000/svg" xmlns:xlink="http://www.w3.org/1999/xlink" xml:space="preserve" xmlns:serif="http://www.serif.com/" style="fill-rule:evenodd;clip-rule:evenodd;stroke-linecap:round;stroke-linejoin:round;stroke-miterlimit:1.5;">
    <g transform="matrix(1.19635,0,0,1.19635,-6.28323,-6.28323)">
        <path d="M55.641,18.729C55.641,13.002 50.998,8.359 45.271,8.359L18.729,8.359C13.002,8.359 8.359,13.002 8.359,18.729L8.359,45.271C8.359,50.998 13.002,55.641 18.729,55.641L45.271,55.641C50.998,55.641 55.641,50.998 55.641,45.271L55.641,18.729Z" style="fill:none;stroke:rgb(90,7,255);stroke-width:4.53px;"/>
    </g>
    <g transform="matrix(-0.200124,-0.200124,0.200124,-0.200124,32,44.9901)">
        <path d="M0,64L0,13.858C0,6.204 6.204,0 13.858,-0L64,0" style="fill:none;stroke:rgb(90,7,255);stroke-width:19.14px;"/>
    </g>
    <g transform="matrix(1.04973,0,0,1.04973,-1.59132,-6.79924)">
        <path d="M32,47.711L32,24.277" style="fill:none;stroke:rgb(90,7,255);stroke-width:5.16px;"/>
    </g>
</svg>
