<?xml version="1.0" encoding="UTF-8" standalone="no"?>
<!DOCTYPE svg PUBLIC "-//W3C//DTD SVG 1.1//EN" "http://www.w3.org/Graphics/SVG/1.1/DTD/svg11.dtd">
<svg width="100%" height="100%" viewBox="0 0 64 64" version="1.1" xmlns="http://www.w3.org/2000/svg" xmlns:xlink="http://www.w3.org/1999/xlink" xml:space="preserve" xmlns:serif="http://www.serif.com/" style="fill-rule:evenodd;clip-rule:evenodd;stroke-linecap:round;stroke-linejoin:round;stroke-miterlimit:1.5;">
    <g transform="matrix(0.980459,0,0,0.980459,0.624181,0.626455)">
        <path d="M16.39,58.769C16.39,58.769 9.958,60.345 5.581,61.417C4.739,61.623 3.851,61.375 3.238,60.762C2.625,60.149 2.377,59.261 2.583,58.419C3.655,54.042 5.231,47.61 5.231,47.61L49.202,3.639C49.849,2.992 50.727,2.628 51.642,2.628C52.558,2.628 53.436,2.992 54.083,3.639C55.945,5.501 58.499,8.055 60.361,9.917C61.008,10.564 61.372,11.442 61.372,12.358C61.372,13.273 61.008,14.151 60.361,14.798L16.39,58.769Z" style="fill:none;stroke:rgb(90,7,255);stroke-width:5.52px;"/>
    </g>
    <g transform="matrix(0.980459,0,0,0.980459,0.624181,0.626455)">
        <path d="M43.148,9.693L54.307,20.852" style="fill:none;stroke:rgb(90,7,255);stroke-width:5.52px;"/>
    </g>
</svg>
