<?xml version="1.0" encoding="UTF-8" standalone="no"?>
<!DOCTYPE svg PUBLIC "-//W3C//DTD SVG 1.1//EN" "http://www.w3.org/Graphics/SVG/1.1/DTD/svg11.dtd">
<svg width="100%" height="100%" viewBox="0 0 512 512" version="1.1" xmlns="http://www.w3.org/2000/svg" xmlns:xlink="http://www.w3.org/1999/xlink" xml:space="preserve" xmlns:serif="http://www.serif.com/" style="fill-rule:evenodd;clip-rule:evenodd;stroke-linejoin:round;stroke-miterlimit:2;">
    <g transform="matrix(0.574042,0,0,0.574042,-37.9095,-37.9095)">
        <path d="M632.274,137.377C608.237,93.394 562.111,66.038 511.988,66.04C511.988,66.054 511.988,66.054 511.988,66.054C461.879,66.061 415.769,93.413 391.739,137.384C389.398,141.638 387.042,145.949 384.69,150.252C360.335,194.817 313.144,222.063 262.372,220.873C257.469,220.758 252.558,220.643 247.704,220.529C197.595,219.353 150.841,245.622 125.781,289.03C125.793,289.037 125.793,289.037 125.793,289.037C100.745,332.436 101.377,386.045 127.442,428.841C129.956,432.995 132.511,437.191 135.062,441.38C161.48,484.754 161.48,539.246 135.062,582.62C132.511,586.809 129.956,591.005 127.43,595.151C101.358,637.959 100.73,691.584 125.793,734.99C125.805,734.983 125.805,734.983 125.805,734.983C150.866,778.375 197.609,804.632 247.704,803.457C252.558,803.357 257.469,803.242 262.372,803.127C313.144,801.937 360.335,829.183 384.69,873.748C387.042,878.051 389.398,882.362 391.726,886.623C415.763,930.606 461.889,957.962 512.012,957.96C512.012,957.946 512.012,957.946 512.012,957.946C562.121,957.939 608.231,930.587 632.261,886.616C634.602,882.362 636.958,878.051 639.31,873.748C663.665,829.183 710.856,801.937 761.628,803.127C766.531,803.242 771.442,803.357 776.296,803.471C826.405,804.647 873.159,778.378 898.219,734.97C898.207,734.963 898.207,734.963 898.207,734.963C923.255,691.564 922.623,637.955 896.558,595.159C894.044,591.005 891.489,586.809 888.938,582.62C862.52,539.246 862.52,484.754 888.938,441.38C891.489,437.191 894.044,432.995 896.57,428.849C922.642,386.041 923.27,332.416 898.207,289.01C898.195,289.017 898.195,289.017 898.195,289.017C873.134,245.625 826.391,219.368 776.296,220.543C771.442,220.643 766.531,220.758 761.628,220.873C710.856,222.063 663.665,194.817 639.31,150.252C636.958,145.949 634.602,141.638 632.274,137.377ZM605.743,151.876L612.779,164.751C642.558,219.241 700.258,252.554 762.337,251.098C767.211,250.984 772.093,250.87 776.919,250.77C776.948,250.77 776.976,250.769 777.005,250.768C816.048,249.853 852.479,270.316 872.012,304.134C872.017,304.152 873.055,312.017 878.53,317.444C891.11,348.496 888.474,384.017 870.748,413.122L863.116,425.653C830.816,478.687 830.816,545.313 863.116,598.347C865.652,602.511 868.192,606.682 870.691,610.812C870.706,610.836 870.721,610.861 870.736,610.885C891.05,644.24 891.544,686.022 872.023,719.846C872.01,719.86 865.717,724.691 863.755,732.146C843.153,758.567 811.074,774.045 777.005,773.246L762.337,772.902C700.258,771.446 642.558,804.759 612.779,859.249C610.441,863.527 608.099,867.813 605.772,872.041C605.758,872.067 605.744,872.092 605.731,872.117C587.002,906.387 551.065,927.705 512.011,927.712C511.993,927.708 504.663,924.674 497.225,926.702C464.043,922.071 434.6,902.028 418.257,872.124L411.221,859.249C381.442,804.759 323.742,771.446 261.663,772.902C256.789,773.016 251.907,773.13 247.081,773.23C247.052,773.23 247.024,773.231 246.995,773.232C207.952,774.147 171.521,753.684 151.988,719.866C151.983,719.848 150.945,711.983 145.47,706.556C132.89,675.504 135.526,639.983 153.252,610.878L160.884,598.347C193.184,545.313 193.184,478.687 160.884,425.653C158.348,421.489 155.808,417.318 153.309,413.188C153.294,413.164 153.279,413.139 153.264,413.115C132.95,379.76 132.456,337.978 151.977,304.154C151.99,304.14 158.283,299.309 160.245,291.854C180.847,265.433 212.926,249.955 246.995,250.754L261.663,251.098C323.742,252.554 381.442,219.241 411.221,164.751C413.559,160.473 415.901,156.187 418.228,151.959C418.242,151.933 418.256,151.908 418.269,151.883C436.998,117.613 472.935,96.295 511.989,96.288C512.007,96.292 519.337,99.326 526.775,97.298C559.957,101.929 589.4,121.972 605.743,151.876Z" style="fill:white;"/>
    </g>
</svg>
