<?xml version="1.0" encoding="UTF-8" standalone="no"?>
<!DOCTYPE svg PUBLIC "-//W3C//DTD SVG 1.1//EN" "http://www.w3.org/Graphics/SVG/1.1/DTD/svg11.dtd">
<svg width="100%" height="100%" viewBox="0 0 512 512" version="1.1" xmlns="http://www.w3.org/2000/svg" xmlns:xlink="http://www.w3.org/1999/xlink" xml:space="preserve" xmlns:serif="http://www.serif.com/" style="fill-rule:evenodd;clip-rule:evenodd;stroke-linejoin:round;stroke-miterlimit:2;">
    <g transform="matrix(0.573899,0,0,0.573899,-37.8365,-37.8365)">
        <path d="M632.213,137.266C608.171,93.273 562.03,65.916 511.896,65.929C511.896,66.054 511.896,66.054 511.896,66.054C461.883,66.117 415.881,93.439 391.896,137.326C390.737,139.188 389.681,141.12 388.622,143.058C361.852,192.042 309.982,221.989 254.176,220.68C251.969,220.629 249.767,220.577 247.577,220.526C197.458,219.35 150.694,245.631 125.639,289.054C125.747,289.117 125.747,289.117 125.747,289.117C100.795,332.461 101.456,385.961 127.471,428.676C128.504,430.611 129.649,432.492 130.798,434.377C159.834,482.053 159.834,541.947 130.798,589.623C129.649,591.508 128.504,593.389 127.365,595.26C101.287,638.077 100.665,691.715 125.743,735.126C125.851,735.063 125.851,735.063 125.851,735.063C150.912,778.345 197.575,804.522 247.574,803.35C249.767,803.423 251.969,803.371 254.176,803.32C309.982,802.011 361.852,831.958 388.622,880.942C389.681,882.88 390.737,884.812 391.787,886.734C415.829,930.727 461.97,958.084 512.104,958.071C512.104,957.946 512.104,957.946 512.104,957.946C562.117,957.883 608.119,930.561 632.104,886.674C633.263,884.812 634.319,882.88 635.378,880.942C662.148,831.958 714.018,802.011 769.824,803.32C772.031,803.371 774.233,803.423 776.423,803.474C826.542,804.65 873.306,778.369 898.361,734.946C898.253,734.883 898.253,734.883 898.253,734.883C923.205,691.539 922.544,638.039 896.529,595.324C895.496,593.389 894.351,591.508 893.202,589.623C864.166,541.947 864.166,482.053 893.202,434.377C894.351,432.492 895.496,430.611 896.635,428.74C922.713,385.923 923.335,332.285 898.257,288.874C898.149,288.937 898.149,288.937 898.149,288.937C873.088,245.655 826.425,219.478 776.426,220.65C774.233,220.577 772.031,220.629 769.824,220.68C714.018,221.989 662.148,192.042 635.378,143.058C634.319,141.12 633.263,139.188 632.213,137.266Z" style="fill:white;"/>
    </g>
</svg>
