<?xml version="1.0" encoding="UTF-8" standalone="no"?>
<!DOCTYPE svg PUBLIC "-//W3C//DTD SVG 1.1//EN" "http://www.w3.org/Graphics/SVG/1.1/DTD/svg11.dtd">
<svg width="100%" height="100%" viewBox="0 0 64 64" version="1.1" xmlns="http://www.w3.org/2000/svg" xmlns:xlink="http://www.w3.org/1999/xlink" xml:space="preserve" xmlns:serif="http://www.serif.com/" style="fill-rule:evenodd;clip-rule:evenodd;stroke-linecap:round;stroke-linejoin:round;stroke-miterlimit:1.5;">
    <g transform="matrix(1.29646,0,0,1.29646,-9.48657,-20.8372)">
        <path d="M49.588,34.346C50.88,35.639 51.606,37.391 51.606,39.219C51.606,43.39 51.606,51.243 51.606,56.677C51.606,59.916 48.981,62.542 45.742,62.542L18.258,62.542C15.019,62.542 12.394,59.916 12.394,56.677L12.394,39.219C12.394,37.391 13.12,35.639 14.412,34.346C17.662,31.096 24.106,24.652 28.227,20.531C30.311,18.448 33.689,18.448 35.773,20.531C39.894,24.652 46.338,31.096 49.588,34.346Z" style="fill:none;stroke:rgb(90,7,255);stroke-width:4.18px;"/>
    </g>
</svg>
