<?xml version="1.0" encoding="UTF-8" standalone="no"?>
<!DOCTYPE svg PUBLIC "-//W3C//DTD SVG 1.1//EN" "http://www.w3.org/Graphics/SVG/1.1/DTD/svg11.dtd">
<svg width="100%" height="100%" viewBox="0 0 128 128" version="1.1" xmlns="http://www.w3.org/2000/svg" xmlns:xlink="http://www.w3.org/1999/xlink" xml:space="preserve" xmlns:serif="http://www.serif.com/" style="fill-rule:evenodd;clip-rule:evenodd;stroke-linecap:round;stroke-linejoin:round;stroke-miterlimit:1.5;">
    <g transform="matrix(0.845293,-0.48803,0.48803,0.845293,-21.3327,41.1352)">
        <path d="M75.587,4.943C67.935,3.442 60.065,3.442 52.413,4.943L45.993,23.45C43.133,24.72 40.416,26.288 37.886,28.13L18.648,24.437C13.523,30.313 9.588,37.129 7.062,44.506L19.879,59.32C19.549,62.431 19.549,65.569 19.879,68.68L7.062,83.494C9.588,90.871 13.523,97.687 18.648,103.563L37.886,99.87C40.416,101.712 43.133,103.28 45.993,104.55L52.413,123.057C60.065,124.558 67.935,124.558 75.587,123.057L82.007,104.55C84.867,103.28 87.584,101.712 90.114,99.87L109.352,103.563C114.477,97.687 118.412,90.871 120.938,83.494L108.121,68.68C108.451,65.569 108.451,62.431 108.121,59.32L120.938,44.506C118.412,37.129 114.477,30.313 109.352,24.437L90.114,28.13C87.584,26.288 84.867,24.72 82.007,23.45L75.587,4.943ZM64,45.394C74.269,45.394 82.606,53.731 82.606,64C82.606,74.269 74.269,82.606 64,82.606C53.731,82.606 45.394,74.269 45.394,64C45.394,53.731 53.731,45.394 64,45.394Z" style="fill:none;stroke:white;stroke-width:10.39px;"/>
    </g>
</svg>
