<?xml version="1.0" encoding="UTF-8" standalone="no"?>
<!DOCTYPE svg PUBLIC "-//W3C//DTD SVG 1.1//EN" "http://www.w3.org/Graphics/SVG/1.1/DTD/svg11.dtd">
<svg width="100%" height="100%" viewBox="0 0 64 64" version="1.1" xmlns="http://www.w3.org/2000/svg" xmlns:xlink="http://www.w3.org/1999/xlink" xml:space="preserve" xmlns:serif="http://www.serif.com/" style="fill-rule:evenodd;clip-rule:evenodd;stroke-linecap:round;stroke-linejoin:round;stroke-miterlimit:1.5;">
    <g transform="matrix(1.25126,0,0,1.25126,-8.04019,-8.04019)">
        <path d="M35.441,8.487C33.159,8.153 30.841,8.153 28.559,8.487L26.176,15.8C25.662,15.984 25.157,16.194 24.663,16.426L17.806,12.941C15.957,14.318 14.318,15.957 12.941,17.806L16.426,24.663C16.194,25.157 15.984,25.662 15.8,26.176L8.487,28.559C8.153,30.841 8.153,33.159 8.487,35.441L15.8,37.824C15.984,38.338 16.194,38.843 16.426,39.337L12.941,46.194C14.318,48.043 15.957,49.682 17.806,51.059L24.663,47.574C25.157,47.806 25.662,48.016 26.176,48.2L28.559,55.513C30.841,55.847 33.159,55.847 35.441,55.513L37.824,48.2C38.338,48.016 38.843,47.806 39.337,47.574L46.194,51.059C48.043,49.682 49.682,48.043 51.059,46.194L47.574,39.337C47.806,38.843 48.016,38.338 48.2,37.824L55.513,35.441C55.847,33.159 55.847,30.841 55.513,28.559L48.2,26.176C48.016,25.662 47.806,25.157 47.574,24.663L51.059,17.806C49.682,15.957 48.043,14.318 46.194,12.941L39.337,16.426C38.843,16.194 38.338,15.984 37.824,15.8L35.441,8.487ZM32,23.489C36.697,23.489 40.511,27.303 40.511,32C40.511,36.697 36.697,40.511 32,40.511C27.303,40.511 23.489,36.697 23.489,32C23.489,27.303 27.303,23.489 32,23.489Z" style="fill:none;stroke:rgb(90,7,255);stroke-width:3.49px;"/>
    </g>
</svg>
