<?xml version="1.0" encoding="UTF-8" standalone="no"?>
<!DOCTYPE svg PUBLIC "-//W3C//DTD SVG 1.1//EN" "http://www.w3.org/Graphics/SVG/1.1/DTD/svg11.dtd">
<svg width="100%" height="100%" viewBox="0 0 64 64" version="1.1" xmlns="http://www.w3.org/2000/svg" xmlns:xlink="http://www.w3.org/1999/xlink" xml:space="preserve" xmlns:serif="http://www.serif.com/" style="fill-rule:evenodd;clip-rule:evenodd;stroke-linecap:round;stroke-linejoin:round;stroke-miterlimit:1.5;">
    <g transform="matrix(1.05527,0,0,1.05527,-1.76871,1.32138)">
        <path d="M29.785,4.794C30.269,4.039 31.103,3.582 32,3.582C32.897,3.582 33.731,4.039 34.215,4.794C36.546,8.435 40.09,13.97 41.651,16.409C42.156,17.198 42.94,17.767 43.846,18.004C46.647,18.735 53.007,20.395 57.19,21.487C58.057,21.713 58.75,22.366 59.027,23.219C59.304,24.071 59.127,25.006 58.559,25.699C55.816,29.042 51.647,34.122 49.81,36.361C49.216,37.085 48.917,38.006 48.972,38.941C49.142,41.831 49.529,48.392 49.783,52.708C49.836,53.603 49.429,54.463 48.703,54.99C47.978,55.517 47.034,55.638 46.199,55.312C42.173,53.736 36.053,51.341 33.357,50.286C32.484,49.945 31.516,49.945 30.643,50.286C27.947,51.341 21.827,53.736 17.801,55.312C16.966,55.638 16.022,55.517 15.297,54.99C14.571,54.463 14.164,53.603 14.217,52.708C14.471,48.392 14.858,41.831 15.028,38.941C15.083,38.006 14.784,37.085 14.19,36.361C12.353,34.122 8.184,29.042 5.441,25.699C4.873,25.006 4.696,24.071 4.973,23.219C5.25,22.366 5.943,21.713 6.81,21.487C10.993,20.395 17.353,18.735 20.154,18.004C21.06,17.767 21.844,17.198 22.349,16.409C23.91,13.97 27.454,8.435 29.785,4.794Z" style="fill:none;stroke:rgb(90,7,255);stroke-width:5.13px;"/>
    </g>
</svg>
